<?xml version="1.0" encoding="UTF-8"?>
<svg version="1.1" xmlns="http://www.w3.org/2000/svg" width="512" height="512">
<path d="M0 0 C1.53289515 -0.00935994 1.53289515 -0.00935994 3.09675789 -0.01890898 C6.51379742 -0.03483661 9.93012341 -0.02223509 13.34716797 -0.00964355 C15.79986995 -0.01506474 18.25256867 -0.02218738 20.70526123 -0.03088379 C26.67114528 -0.04722703 32.63675034 -0.04483883 38.60262346 -0.03323323 C43.45224184 -0.0241906 48.30180383 -0.02297848 53.15142822 -0.02732849 C53.84229904 -0.02794142 54.53316986 -0.02855436 55.24497616 -0.02918586 C56.64857532 -0.03046479 58.05217447 -0.03176165 59.45577359 -0.03307623 C72.60972276 -0.04447568 85.76356033 -0.03137833 98.9174912 -0.00987476 C110.19814246 0.00799568 121.47862906 0.00489139 132.75927734 -0.0135498 C145.86694232 -0.03496779 158.97450953 -0.0433771 172.08218956 -0.03110075 C173.48055393 -0.02982659 174.87891831 -0.0285691 176.27728271 -0.02732849 C177.30924922 -0.02640284 177.30924922 -0.02640284 178.36206353 -0.02545848 C183.20447333 -0.02200836 188.04682101 -0.02782663 192.88922119 -0.0372467 C199.40967097 -0.04965261 205.92985813 -0.04078891 212.45029449 -0.01766968 C214.84361505 -0.01237974 217.23696176 -0.01390118 219.63027191 -0.02272034 C222.89677185 -0.03364754 226.16227457 -0.01994504 229.42871094 0 C230.85006946 -0.01338433 230.85006946 -0.01338433 232.30014229 -0.02703905 C238.28693953 0.043887 241.82096751 0.99266281 246.71435547 4.50793457 C248.5039959 6.79276677 249.91169741 8.83483568 251.33935547 11.32043457 C251.75411133 12.0120166 252.16886719 12.70359863 252.59619141 13.4161377 C253.99322279 15.7667636 255.35759958 18.13384457 256.71435547 20.50793457 C257.45347168 21.80030029 257.45347168 21.80030029 258.20751953 23.11877441 C260.92440768 27.88748807 263.61653185 32.66973518 266.30029297 37.45715332 C269.66741601 43.44862326 273.11653226 49.38974843 276.58935547 55.32043457 C283.38321263 66.92735538 290.11025428 78.57186409 296.82324219 90.22570801 C299.95115695 95.65453399 303.08293995 101.08112738 306.21435547 106.50793457 C307.46437426 108.6745904 308.71437425 110.84125707 309.96435547 113.00793457 C310.58310547 114.08043457 311.20185547 115.15293457 311.83935547 116.25793457 C318.71435547 128.17460124 325.58935547 140.0912679 332.46435547 152.00793457 C333.08334717 153.0808374 333.70233887 154.15374023 334.34008789 155.25915527 C335.58770287 157.4217204 336.83526163 159.58431796 338.08276367 161.74694824 C341.88471182 168.33768665 345.68793119 174.92768535 349.49536133 181.51525879 C350.75618305 183.7010706 352.01356746 185.8888691 353.26733398 188.07873535 C356.21769375 193.22687209 359.20601551 198.33801663 362.32373047 203.38684082 C363.16738159 204.78132446 363.16738159 204.78132446 364.02807617 206.20397949 C365.06767721 207.91914145 366.12705967 209.62256271 367.21118164 211.30993652 C370.98660353 217.61279908 372.03084649 223.230971 370.71435547 230.50793457 C369.11355258 234.71670776 366.94185605 238.42790178 364.58935547 242.25793457 C363.95698975 243.33502686 363.32462402 244.41211914 362.6730957 245.52185059 C361.35476857 247.76272903 360.0254775 249.99719178 358.68554688 252.22521973 C356.24267915 256.29343863 353.86354508 260.39675125 351.48461914 264.50256348 C349.75713483 267.47941778 348.01836702 270.44942394 346.27685547 273.41809082 C342.58222237 279.72363876 338.92582865 286.05087893 335.27685547 292.38293457 C334.65431885 293.46308838 334.03178223 294.54324219 333.39038086 295.65612793 C332.12858721 297.84589791 330.86695013 300.03575812 329.60546875 302.22570801 C326.47755399 307.65453399 323.34577099 313.08112738 320.21435547 318.50793457 C318.96433668 320.6745904 317.71433668 322.84125707 316.46435547 325.00793457 C308.96435547 338.00793457 301.46435547 351.00793457 293.96435547 364.00793457 C293.3455249 365.0805957 292.72669434 366.15325684 292.08911133 367.25842285 C290.84000029 369.42350528 289.59081418 371.58854439 288.34155273 373.75354004 C285.20233237 379.19409163 282.06444984 384.63540673 278.92919922 390.07824707 C272.70760306 400.87695402 266.47583064 411.6697942 260.21435547 422.44543457 C259.38762329 423.87363525 259.38762329 423.87363525 258.54418945 425.33068848 C256.95114692 428.06679153 255.33387229 430.78743899 253.71435547 433.50793457 C253.14845703 434.49551758 252.58255859 435.48310059 251.99951172 436.50061035 C251.42072266 437.47369141 250.84193359 438.44677246 250.24560547 439.44934082 C249.73578125 440.32405029 249.22595703 441.19875977 248.70068359 442.09997559 C245.6515524 445.7963351 242.17128378 448.10998029 237.43634415 448.87690926 C234.75961488 449.02265839 232.10933702 449.04111146 229.42871094 449.01586914 C227.89581578 449.02522908 227.89581578 449.02522908 226.33195305 449.03477812 C222.91491352 449.05070575 219.49858753 449.03810423 216.08154297 449.0255127 C213.62884099 449.03093389 211.17614226 449.03805652 208.72344971 449.04675293 C202.75756565 449.06309617 196.7919606 449.06070797 190.82608747 449.04910237 C185.9764691 449.04005974 181.12690711 449.03884762 176.27728271 449.04319763 C175.58641189 449.04381056 174.89554107 449.0444235 174.18373477 449.045055 C172.78013562 449.04633394 171.37653647 449.04763079 169.97293735 449.04894537 C156.81898817 449.06034482 143.66515061 449.04724747 130.51121974 449.0257439 C119.23056848 449.00787346 107.95008188 449.01097775 96.66943359 449.02941895 C83.56176862 449.05083693 70.4542014 449.05924624 57.34652138 449.04696989 C55.94815701 449.04569573 54.54979262 449.04443824 53.15142822 449.04319763 C52.11946172 449.04227198 52.11946172 449.04227198 51.06664741 449.04132763 C46.2242376 449.0378775 41.38188993 449.04369577 36.53948975 449.05311584 C30.01903997 449.06552175 23.49885281 449.05665805 16.97841644 449.03353882 C14.58509589 449.02824888 12.19174917 449.02977032 9.79843903 449.03858948 C6.53193909 449.04951668 3.26643637 449.03581418 0 449.01586914 C-1.42135852 449.02925347 -1.42135852 449.02925347 -2.87143135 449.04290819 C-8.8582286 448.97198214 -12.39225657 448.02320633 -17.28564453 444.50793457 C-19.07528496 442.22310237 -20.48298647 440.18103346 -21.91064453 437.69543457 C-22.32540039 437.00385254 -22.74015625 436.31227051 -23.16748047 435.59973145 C-24.56451185 433.24910554 -25.92888865 430.88202457 -27.28564453 428.50793457 C-27.77838867 427.64635742 -28.27113281 426.78478027 -28.77880859 425.89709473 C-31.49713849 421.1258505 -34.19055456 416.34100275 -36.87548828 411.55090332 C-40.2183708 405.60235557 -43.6471915 399.70678003 -47.09814453 393.82043457 C-52.2180843 385.08186921 -57.27211189 376.30778838 -62.28564453 367.50793457 C-67.82533352 357.78659358 -73.41939516 348.09898365 -79.0690918 338.44104004 C-85.22331195 327.91708832 -91.30934449 317.3541332 -97.39453125 306.79016113 C-100.52244603 301.36133512 -103.65426419 295.93476208 -106.78564453 290.50793457 C-108.03174292 288.347781 -109.27783667 286.18762474 -110.52392578 284.02746582 C-113.70276246 278.51731654 -116.88341031 273.00821706 -120.06665039 267.50061035 C-121.32747211 265.31479854 -122.58485652 263.12700004 -123.83862305 260.93713379 C-126.78898282 255.78899705 -129.77730457 250.67785251 -132.89501953 245.62902832 C-133.45745361 244.69937256 -134.0198877 243.7697168 -134.59936523 242.81188965 C-135.63896627 241.09672769 -136.69834873 239.39330643 -137.7824707 237.70593262 C-141.55789259 231.40307006 -142.60213555 225.78489814 -141.28564453 218.50793457 C-139.68484164 214.29916138 -137.51314512 210.58796736 -135.16064453 206.75793457 C-134.52827881 205.68084229 -133.89591309 204.60375 -133.24438477 203.49401855 C-131.92605764 201.25314011 -130.59676656 199.01867736 -129.25683594 196.79064941 C-126.81396821 192.72243051 -124.43483414 188.61911789 -122.0559082 184.51330566 C-120.32842389 181.53645136 -118.58965608 178.5664452 -116.84814453 175.59777832 C-113.15351143 169.29223038 -109.49711772 162.96499021 -105.84814453 156.63293457 C-105.22560791 155.55278076 -104.60307129 154.47262695 -103.96166992 153.35974121 C-102.69987627 151.16997123 -101.43823919 148.98011102 -100.17675781 146.79016113 C-96.42536429 140.279222 -92.66873459 133.77130263 -88.91308594 127.26281738 C-85.77382207 121.82208121 -82.63582956 116.3806198 -79.50048828 110.93762207 C-73.47817124 100.48587258 -67.43895116 90.04493909 -61.34814453 79.63293457 C-56.27288846 70.95530388 -51.26361557 62.24156562 -46.28564453 53.50793457 C-41.13101707 44.46796816 -35.95498717 35.44102966 -30.72314453 26.44543457 C-30.1759375 25.50119629 -29.62873047 24.55695801 -29.06494141 23.58410645 C-27.48893314 20.88155127 -25.88821055 18.19480446 -24.28564453 15.50793457 C-23.72119629 14.52325195 -23.15674805 13.53856934 -22.57519531 12.52404785 C-21.99624512 11.55064453 -21.41729492 10.57724121 -20.82080078 9.57434082 C-20.3104126 8.69850342 -19.80002441 7.82266602 -19.27416992 6.92028809 C-13.88644977 0.384246 -7.9491284 -0.07485357 0 0 Z " fill="#FF7B05" transform="translate(141.28564453125,31.4920654296875)"/>
<path d="M0 0 C1.0240468 -0.00482883 2.0480936 -0.00965766 3.10317212 -0.01463282 C6.52723862 -0.02588529 9.95055528 -0.00859803 13.37458801 0.00863647 C15.83215538 0.0064902 18.28972175 0.00261189 20.74728394 -0.00286865 C26.72420852 -0.01155412 32.70084061 -0.00169505 38.67772122 0.01683195 C45.63852764 0.03763135 52.59928647 0.03745877 59.56011812 0.03648679 C71.97813925 0.03548634 84.39605722 0.05378888 96.81404114 0.08285522 C108.86451598 0.11104674 120.91490006 0.12519592 132.96540833 0.12387085 C134.07938065 0.12375098 134.07938065 0.12375098 135.21585747 0.12362869 C136.32790435 0.12350763 136.32790435 0.12350763 137.46241683 0.12338412 C151.18422393 0.12200475 164.90599247 0.13378033 178.62778708 0.15169055 C183.48060063 0.15772398 188.3334071 0.15984974 193.18622398 0.16075516 C199.7139961 0.16226121 206.24168487 0.17494175 212.76943016 0.19508743 C215.1688478 0.20094085 217.56827646 0.20338748 219.96770096 0.20223236 C223.23499887 0.20125445 226.50202673 0.21252772 229.76928711 0.22705078 C230.72559798 0.22395358 231.68190885 0.22085637 232.66719884 0.21766531 C233.97894313 0.22733865 233.97894313 0.22733865 235.31718731 0.23720741 C236.07131458 0.23861626 236.82544185 0.24002511 237.60242146 0.24147666 C239.98541779 0.52970337 241.62094106 1.31291628 243.69416809 2.49447632 C243.03416809 2.82447632 242.37416809 3.15447632 241.69416809 3.49447632 C241.45053528 4.28338257 241.20690247 5.07228882 240.95588684 5.88510132 C239.14271369 11.07201151 236.31486733 15.53756663 233.50666809 20.24447632 C232.22997031 22.40815181 230.95395139 24.57222797 229.67854309 26.73666382 C229.01918762 27.85266968 228.35983215 28.96867554 227.68049622 30.11849976 C224.50491346 35.51574145 221.38056135 40.94220607 218.25666809 46.36947632 C217.33627747 47.96565796 217.33627747 47.96565796 216.39729309 49.59408569 C213.45880744 54.69052175 210.52408227 59.78909249 207.5953064 64.89111328 C206.22910295 67.27044804 204.86136553 69.64889914 203.49345398 72.0272522 C202.53286944 73.69888022 201.57454631 75.37180711 200.61628723 77.04476929 C200.02968323 78.06457886 199.44307922 79.08438843 198.83869934 80.13510132 C198.32669983 81.02745483 197.81470032 81.91980835 197.28718567 82.83920288 C196.76148987 83.71544312 196.23579407 84.59168335 195.69416809 85.49447632 C195.27763474 86.52329926 194.86110138 87.55212219 194.4319458 88.61212158 C191.20471313 92.0097785 190.38037955 91.97247181 185.86024475 92.25396729 C183.33930788 92.28920883 180.81777964 92.29105137 178.29670715 92.26742554 C176.9069548 92.27559713 175.51721578 92.28640002 174.12750244 92.29963684 C170.35692227 92.3280923 166.58721471 92.31971535 162.81659031 92.30476904 C158.87536035 92.29539553 154.9343443 92.31983354 150.99317932 92.34069824 C143.5310872 92.37505873 136.06930146 92.37897298 128.60714602 92.37197316 C120.11135389 92.36548432 111.61577729 92.39289968 103.120049 92.42317557 C85.64471242 92.48469151 68.16960623 92.50238684 50.69416809 92.49447632 C53.99416809 95.13447632 57.29416809 97.77447632 60.69416809 100.49447632 C60.36416809 101.81447632 60.03416809 103.13447632 59.69416809 104.49447632 C54.41416809 104.16447632 49.13416809 103.83447632 43.69416809 103.49447632 C41.21916809 110.42447632 41.21916809 110.42447632 38.69416809 117.49447632 C37.37416809 117.49447632 36.05416809 117.49447632 34.69416809 117.49447632 C33.70416809 113.20447632 32.71416809 108.91447632 31.69416809 104.49447632 C29.41159512 107.53790695 27.52480992 110.38136537 25.64729309 113.65853882 C25.057547 114.68463257 24.4678009 115.71072632 23.86018372 116.76791382 C23.22789856 117.87392944 22.5956134 118.97994507 21.94416809 120.11947632 C21.27452416 121.28630254 20.60459725 122.4529664 19.93440247 123.61947632 C18.5426804 126.04235144 17.15217705 128.46591978 15.76252747 130.88998413 C12.58445779 136.43137659 9.38838836 141.96238379 6.19416809 147.49447632 C4.94408341 149.66109413 3.69408369 151.82776096 2.44416809 153.99447632 C-0.05583191 158.32780965 -2.55583191 162.66114299 -5.05583191 166.99447632 C-5.67530701 168.06826538 -6.2947821 169.14205444 -6.93302917 170.24838257 C-8.1755921 172.40209352 -9.4182668 174.55573998 -10.66105652 176.70932007 C-13.55897814 181.73131894 -16.4558654 186.75390439 -19.34858704 191.77890015 C-20.36530389 193.54493154 -21.38238849 195.31075063 -22.39958191 197.07650757 C-23.66984064 199.28181787 -24.93942209 201.48751848 -26.20817566 203.69369507 C-26.78825378 204.70045288 -27.36833191 205.70721069 -27.96598816 206.74447632 C-28.5191571 207.70998413 -29.07232605 208.67549194 -29.64225769 209.67025757 C-30.75872008 211.56565483 -31.91432509 213.43849069 -33.10612488 215.28744507 C-33.66573914 216.16014038 -34.22535339 217.03283569 -34.80192566 217.93197632 C-35.56074036 219.07473022 -35.56074036 219.07473022 -36.33488464 220.24057007 C-37.59391913 223.16322695 -37.28133067 224.49131719 -36.30583191 227.49447632 C-35.13905298 230.0334776 -35.13905298 230.0334776 -33.63786316 232.60775757 C-33.08171326 233.59574341 -32.52556335 234.58372925 -31.95256042 235.60165405 C-31.34726501 236.6594104 -30.7419696 237.71716675 -30.11833191 238.80697632 C-29.49047791 239.91565063 -28.8626239 241.02432495 -28.21574402 242.16659546 C-22.84389492 251.6241329 -17.36887212 261.02149283 -11.86833191 270.40463257 C-8.17369881 276.71018051 -4.5173051 283.03742068 -0.86833191 289.36947632 C-0.24579529 290.44963013 0.37674133 291.52978394 1.0181427 292.64266968 C2.27993635 294.83243966 3.54157343 297.02229987 4.80305481 299.21224976 C7.30842342 303.56058124 9.81622525 307.90750567 12.32478333 312.2539978 C13.56357252 314.40137262 14.80137784 316.54931534 16.03816223 318.69784546 C18.96381013 323.77789372 21.89853937 328.85202918 24.86585999 333.90783691 C26.2670576 336.29651974 27.66306094 338.68821848 29.05867004 341.08016968 C30.04604635 342.76746433 31.04091933 344.45036496 32.03596497 346.13314819 C32.63215637 347.15601929 33.22834778 348.17889038 33.84260559 349.23275757 C34.63417053 350.57914307 34.63417053 350.57914307 35.44172668 351.95272827 C36.74316431 354.59391094 37.48980219 356.55544467 37.69416809 359.49447632 C36.77644348 361.82089233 36.77644348 361.82089233 35.29182434 364.24838257 C34.73946106 365.17070679 34.18709778 366.09303101 33.61799622 367.04330444 C33.00375793 368.03781616 32.38951965 369.03232788 31.75666809 370.05697632 C30.45432214 372.22400548 29.15360521 374.3920143 27.85432434 376.56088257 C27.51414276 377.1245755 27.17396118 377.68826843 26.82347107 378.26904297 C23.3479638 384.03389179 20.01593208 389.87727455 16.6945343 395.73184204 C10.64077889 406.39849258 4.50537796 417.01617471 -1.70231628 427.59408569 C-3.24355713 430.22369976 -4.77658997 432.85786983 -6.30583191 435.49447632 C-6.80163757 436.34090698 -7.29744324 437.18733765 -7.80827332 438.05941772 C-8.26766296 438.85911987 -8.72705261 439.65882202 -9.20036316 440.48275757 C-9.60746521 441.18569946 -10.01456726 441.88864136 -10.43400574 442.61288452 C-11.51603641 444.60251748 -11.51603641 444.60251748 -11.30583191 447.49447632 C-21.01550689 444.41054349 -25.53025466 431.81958542 -30.11833191 423.43197632 C-31.35392507 421.19943784 -32.59090708 418.96766746 -33.82926941 416.73666382 C-34.42578308 415.66126343 -35.02229675 414.58586304 -35.6368866 413.47787476 C-37.78496737 409.63797612 -39.99621254 405.83954808 -42.24333191 402.05697632 C-46.3792692 395.08693314 -50.44704492 388.07946214 -54.49333191 381.05697632 C-55.13133728 379.9497522 -55.76934265 378.84252808 -56.42668152 377.70175171 C-57.73472667 375.43110564 -59.04258639 373.16035274 -60.3502655 370.88949585 C-63.49915245 365.42277652 -66.65266455 359.95872745 -69.80583191 354.49447632 C-71.05585541 352.32782321 -72.30585538 350.16115652 -73.55583191 347.99447632 C-74.17458191 346.92197632 -74.79333191 345.84947632 -75.43083191 344.74447632 C-87.30583191 324.16114299 -99.18083191 303.57780965 -111.05583191 282.99447632 C-111.67546814 281.92044556 -112.29510437 280.84641479 -112.93351746 279.73983765 C-114.17458445 277.58864407 -115.41563284 275.43743977 -116.65666199 273.28622437 C-119.57081535 268.23484633 -122.48515009 263.18357321 -125.40016174 258.13269043 C-126.43256669 256.34380714 -127.46491147 254.55488915 -128.49723816 252.76596069 C-129.79269139 250.52109996 -131.08825761 248.27630441 -132.38395691 246.03158569 C-133.53337622 244.03967992 -134.67625308 242.04397823 -135.811203 240.04379272 C-137.21487589 237.56960199 -137.21487589 237.56960199 -138.61686707 235.62875366 C-142.28914963 230.28359599 -142.32148689 224.69592354 -141.30583191 218.49447632 C-139.71515042 214.2817769 -137.53322238 210.57432984 -135.18083191 206.74447632 C-134.54846619 205.66738403 -133.91610046 204.59029175 -133.26457214 203.4805603 C-131.94624501 201.23968186 -130.61695394 199.00521911 -129.27702332 196.77719116 C-126.83415559 192.70897226 -124.45502152 188.60565964 -122.07609558 184.49984741 C-120.34861127 181.5229931 -118.60984346 178.55298695 -116.86833191 175.58432007 C-113.17369881 169.27877213 -109.5173051 162.95153196 -105.86833191 156.61947632 C-105.24579529 155.53932251 -104.62325867 154.4591687 -103.9818573 153.34628296 C-102.72006365 151.15651298 -101.45842657 148.96665277 -100.19694519 146.77670288 C-96.44555167 140.26576375 -92.68892197 133.75784438 -88.93327332 127.24935913 C-85.79400945 121.80862296 -82.65601694 116.36716155 -79.52067566 110.92416382 C-73.49835862 100.47241432 -67.45913854 90.03148084 -61.36833191 79.61947632 C-56.29307584 70.94184563 -51.28380294 62.22810737 -46.30583191 53.49447632 C-41.15120445 44.45450991 -35.97517455 35.42757141 -30.74333191 26.43197632 C-30.19612488 25.48773804 -29.64891785 24.54349976 -29.08512878 23.57064819 C-27.50912052 20.86809301 -25.90839793 18.18134621 -24.30583191 15.49447632 C-23.74138367 14.5097937 -23.17693542 13.52511108 -22.59538269 12.5105896 C-22.0164325 11.53718628 -21.4374823 10.56378296 -20.84098816 9.56088257 C-20.33059998 8.68504517 -19.82021179 7.80920776 -19.2943573 6.90682983 C-13.89823336 0.3605928 -7.96011668 -0.08623116 0 0 Z " fill="#FFD35C" transform="translate(141.3058319091797,31.505523681640625)"/>
<path d="M0 0 C4.72265625 0.65136719 4.72265625 0.65136719 7.21875 3.7890625 C7.9966466 5.05714986 8.75567827 6.33691854 9.5 7.625 C9.9237793 8.33011719 10.34755859 9.03523438 10.78417969 9.76171875 C15.53404319 17.7362916 20.04729104 25.85334386 24.5859375 33.94921875 C27.95306054 39.94068869 31.40217679 45.88181386 34.875 51.8125 C41.66885716 63.41942081 48.39589881 75.06392952 55.10888672 86.71777344 C58.23680148 92.14659942 61.36858448 97.57319281 64.5 103 C65.75001879 105.16665583 67.00001878 107.3333225 68.25 109.5 C68.86875 110.5725 69.4875 111.645 70.125 112.75 C77 124.66666667 83.875 136.58333333 90.75 148.5 C91.3689917 149.57290283 91.9879834 150.64580566 92.62573242 151.7512207 C93.8733474 153.91378583 95.12090616 156.07638339 96.3684082 158.23901367 C100.17056761 164.83011831 103.97461891 171.42012485 107.78100586 178.00878906 C109.04013157 180.19069316 110.29749096 182.37361763 111.55297852 184.55761719 C114.54064013 189.75417171 117.54790653 194.93637183 120.609375 200.08984375 C121.45302612 201.52493286 121.45302612 201.52493286 122.3137207 202.98901367 C123.3642796 204.77532709 124.42469789 206.55589411 125.49682617 208.3293457 C125.96064697 209.12300537 126.42446777 209.91666504 126.90234375 210.734375 C127.30960693 211.41725586 127.71687012 212.10013672 128.13647461 212.80371094 C129.2393964 215.60888041 129.05638252 218.00931927 129 221 C115.72675356 221.34801532 102.45459673 221.61429665 89.17771244 221.77718258 C83.01193355 221.85537626 76.84928154 221.96135286 70.68530273 222.1315918 C64.73277217 222.29495618 58.78324145 222.3843326 52.82864189 222.42315865 C50.56086411 222.45081199 48.29324544 222.50482294 46.02675056 222.58595085 C28.73053652 223.18026017 28.73053652 223.18026017 24.19236755 219.55665398 C21.20457147 216.04433283 19.3847985 212.17012184 17.75956154 207.88570023 C16.59701124 204.99953333 14.98452755 202.41212469 13.3671875 199.76171875 C12.20179059 197.73774693 11.03775716 195.71298949 9.875 193.6875 C8.57034843 191.42055224 7.26565987 189.15362576 5.9609375 186.88671875 C5.30448242 185.74509277 4.64802734 184.6034668 3.97167969 183.42724609 C0.81974768 177.94844203 -2.34040797 172.47438887 -5.5 167 C-6.7500423 164.83335774 -8.00004224 162.66669103 -9.25 160.5 C-9.86875 159.4275 -10.4875 158.355 -11.125 157.25 C-16.75 147.5 -16.75 147.5 -18.62695312 144.24658203 C-19.8704051 142.09128689 -21.11389436 139.93601327 -22.35742188 137.78076172 C-25.24462875 132.77662326 -28.1315043 127.7722948 -31.01696777 122.76715088 C-32.02619104 121.01658759 -33.03553836 119.26609589 -34.04492188 117.515625 C-35.3016766 115.33607835 -36.55820586 113.15640168 -37.81445312 110.9765625 C-38.39130859 109.97625 -38.96816406 108.9759375 -39.5625 107.9453125 C-40.12066406 106.96981445 -40.67882812 105.99431641 -41.25390625 104.98925781 C-42.47939317 102.89126259 -43.74055699 100.81389595 -45.02734375 98.75292969 C-45.67832031 97.69750977 -46.32929688 96.64208984 -47 95.5546875 C-47.598125 94.60835449 -48.19625 93.66202148 -48.8125 92.68701172 C-50.22826869 89.48348578 -50.13587731 88.27191248 -49 85 C-47.83935547 82.6418457 -47.83935547 82.6418457 -46.3671875 80.17578125 C-45.81619385 79.24330566 -45.2652002 78.31083008 -44.69750977 77.35009766 C-43.79536743 75.84648682 -43.79536743 75.84648682 -42.875 74.3125 C-41.58913841 72.13974019 -40.30400648 69.96654843 -39.01953125 67.79296875 C-38.3538916 66.67067871 -37.68825195 65.54838867 -37.00244141 64.39208984 C-33.81524931 58.99305949 -30.68868452 53.55951031 -27.5625 48.125 C-26.31651514 45.96217685 -25.0704205 43.79941694 -23.82421875 41.63671875 C-23.2007959 40.55438965 -22.57737305 39.47206055 -21.93505859 38.35693359 C-19.92395246 34.86807297 -17.90969005 31.38105172 -15.89453125 27.89453125 C-15.21474214 26.71794788 -14.53497305 25.54135295 -13.85522461 24.36474609 C-12.57401834 22.14731622 -11.29231333 19.93017441 -10.01000977 17.71337891 C-6.61742993 11.83902924 -3.26936584 5.94387572 0 0 Z " fill="#FF9416" transform="translate(383,35)"/>
<path d="M0 0 C0.32380646 0.70137085 0.64761292 1.4027417 0.98123169 2.12536621 C1.44440796 2.90686035 1.90758423 3.68835449 2.38479614 4.49353027 C2.86650269 5.36719238 3.34820923 6.24085449 3.84451294 7.14099121 C4.39421753 8.13219971 4.94392212 9.1234082 5.51028442 10.14465332 C6.09882202 11.21078857 6.68735962 12.27692383 7.29373169 13.37536621 C12.08252961 21.98971601 16.93523712 30.55927294 21.91873169 39.06286621 C22.49349243 40.04368164 23.06825317 41.02449707 23.66043091 42.03503418 C24.24067017 43.02519531 24.82090942 44.01535645 25.41873169 45.03552246 C29.11336479 51.3410704 32.7697585 57.66831057 36.41873169 64.00036621 C37.04126831 65.08052002 37.66380493 66.16067383 38.3052063 67.27355957 C39.56699995 69.46332955 40.82863703 71.65318976 42.09011841 73.84313965 C44.59548702 78.19147113 47.10328885 82.53839556 49.61184692 86.8848877 C50.85063612 89.03226251 52.08844144 91.18020524 53.32522583 93.32873535 C56.25087373 98.40878361 59.18560297 103.48291907 62.15292358 108.53872681 C63.5541212 110.92740964 64.95012454 113.31910837 66.34573364 115.71105957 C67.33310994 117.39835423 68.32798293 119.08125486 69.32302856 120.76403809 C69.91921997 121.78690918 70.51541138 122.80978027 71.12966919 123.86364746 C71.65737915 124.76123779 72.18508911 125.65882813 72.72879028 126.58361816 C74.03022791 129.22480084 74.77686579 131.18633456 74.98123169 134.12536621 C74.06350708 136.45178223 74.06350708 136.45178223 72.57888794 138.87927246 C71.75034302 140.26275879 71.75034302 140.26275879 70.90505981 141.67419434 C70.29082153 142.66870605 69.67658325 143.66321777 69.04373169 144.68786621 C67.74138574 146.85489537 66.44066881 149.02290419 65.14138794 151.19177246 C64.80120636 151.75546539 64.46102478 152.31915833 64.11053467 152.89993286 C60.6350274 158.66478168 57.30299568 164.50816444 53.9815979 170.36273193 C47.92784249 181.02938248 41.79244155 191.6470646 35.58474731 202.22497559 C34.04350647 204.85458965 32.51047363 207.48875973 30.98123169 210.12536621 C30.48542603 210.97179687 29.98962036 211.81822754 29.47879028 212.69030762 C29.01940063 213.49000977 28.56001099 214.28971191 28.08670044 215.11364746 C27.67959839 215.81658936 27.27249634 216.51953125 26.85305786 217.24377441 C25.77102719 219.23340738 25.77102719 219.23340738 25.98123169 222.12536621 C16.27155671 219.04143338 11.75680894 206.45047531 7.16873169 198.06286621 C5.93313852 195.83032774 4.69615652 193.59855736 3.45779419 191.36755371 C2.86128052 190.29215332 2.26476685 189.21675293 1.650177 188.10876465 C-0.49790378 184.26886601 -2.70914894 180.47043797 -4.95626831 176.68786621 C-9.0922056 169.71782303 -13.15998132 162.71035203 -17.20626831 155.68786621 C-17.84427368 154.58064209 -18.48227905 153.47341797 -19.13961792 152.3326416 C-20.44766308 150.06199554 -21.75552279 147.79124263 -23.0632019 145.52038574 C-26.21208885 140.05366641 -29.36560095 134.58961734 -32.51876831 129.12536621 C-33.76879181 126.9587131 -35.01879178 124.79204642 -36.26876831 122.62536621 C-36.88751831 121.55286621 -37.50626831 120.48036621 -38.14376831 119.37536621 C-50.01876831 98.79203288 -61.89376831 78.20869954 -73.76876831 57.62536621 C-74.38840454 56.55133545 -75.00804077 55.47730469 -75.64645386 54.37072754 C-76.88752085 52.21953397 -78.12856924 50.06832966 -79.36959839 47.91711426 C-82.28375175 42.86573622 -85.19808649 37.81446311 -88.11309814 32.76358032 C-89.14550309 30.97469703 -90.17784787 29.18577904 -91.21017456 27.39685059 C-92.50562779 25.15198985 -93.80119401 22.90719431 -95.09689331 20.66247559 C-96.24292541 18.67643973 -97.38559887 16.68846015 -98.5241394 14.69812012 C-99.43341595 13.13295249 -100.36349657 11.57932179 -101.32980347 10.04870605 C-103.75675005 6.1590006 -104.17768718 3.65435679 -104.01876831 -0.87463379 C-90.77172486 -1.09775028 -77.52454747 -1.2992801 -64.27675915 -1.47303391 C-58.12567984 -1.55439266 -51.9748982 -1.6432657 -45.82418823 -1.74914551 C-39.89159693 -1.85099687 -33.95903009 -1.93332671 -28.02596474 -2.00196075 C-25.75918637 -2.03164582 -23.49248987 -2.06843884 -21.22594261 -2.11235809 C-18.05809083 -2.1725437 -14.89089312 -2.20775004 -11.72262573 -2.23693848 C-10.30814148 -2.27253624 -10.30814148 -2.27253624 -8.86508179 -2.30885315 C-2.50951239 -2.33034009 -2.50951239 -2.33034009 0 0 Z " fill="#FFC13F" transform="translate(104.01876831054688,256.8746337890625)"/>
<path d="M0 0 C0.95018005 0.00359528 1.90036011 0.00719055 2.8793335 0.01089478 C4.37184883 0.01067574 4.37184883 0.01067574 5.89451599 0.01045227 C9.20059348 0.01115186 12.5066154 0.01894637 15.81268311 0.02676392 C18.09811879 0.02862793 20.38355487 0.03005191 22.66899109 0.03105164 C28.69751073 0.03487809 34.72600644 0.04470947 40.7545166 0.05575562 C46.90085527 0.06596699 53.04719778 0.07054867 59.19354248 0.07559204 C71.26321447 0.08633162 83.33286868 0.10340957 95.40252686 0.12442017 C95.51051366 4.73699925 95.15037564 7.31255559 92.83221436 11.33535767 C92.2728418 12.32012085 91.71346924 13.30488403 91.137146 14.31948853 C90.52347168 15.36886597 89.90979736 16.41824341 89.27752686 17.49942017 C88.64516113 18.60358276 88.01279541 19.70774536 87.36126709 20.84536743 C85.38888998 24.28010417 83.39814629 27.70314642 81.40252686 31.12442017 C80.2292354 33.14648923 79.05605361 35.16862192 77.88299561 37.19082642 C75.58487801 41.14339184 73.27763081 45.0904713 70.96502686 49.03457642 C67.27039375 55.34012436 63.61400004 61.66736453 59.96502686 67.99942017 C59.34249023 69.07957397 58.71995361 70.15972778 58.07855225 71.27261353 C56.81675859 73.4623835 55.55512152 75.65224372 54.29364014 77.8421936 C51.16572537 83.27101959 48.03394238 88.69761298 44.90252686 94.12442017 C43.65250807 96.29107599 42.40250807 98.45774266 41.15252686 100.62442017 C29.90252686 120.12442017 29.90252686 120.12442017 18.65252686 139.62442017 C18.03369629 140.6970813 17.41486572 141.76974243 16.77728271 142.87490845 C15.52817167 145.03999087 14.27898556 147.20502999 13.02972412 149.37002563 C9.89050376 154.81057722 6.75262123 160.25189232 3.61737061 165.69473267 C-2.60422555 176.49343962 -8.83599797 187.28627979 -15.09747314 198.06192017 C-15.64862793 199.01405396 -16.19978271 199.96618774 -16.76763916 200.94717407 C-18.36071396 203.68333256 -19.97444059 206.40593771 -21.59747314 209.12442017 C-22.19817627 210.14680786 -22.79887939 211.16919556 -23.41778564 212.2225647 C-24.32657471 213.72279175 -24.32657471 213.72279175 -25.25372314 215.25332642 C-25.79835205 216.16284058 -26.34298096 217.07235474 -26.90411377 218.00942993 C-28.59747314 220.12442017 -28.59747314 220.12442017 -30.80645752 220.92886353 C-31.39749268 220.99339722 -31.98852783 221.05793091 -32.59747314 221.12442017 C-39.60288425 210.06795663 -46.07583303 198.70422263 -52.59194946 187.35533142 C-55.51722255 182.26083109 -58.45410692 177.17308534 -61.394104 172.08706665 C-62.64745054 169.91616365 -63.89829547 167.74381431 -65.14654541 165.56997681 C-68.1361001 160.36496629 -71.15224464 155.18083483 -74.24200439 150.03457642 C-75.0924231 148.5994873 -75.0924231 148.5994873 -75.96002197 147.13540649 C-77.02054786 145.34720205 -78.09385448 143.56649091 -79.18218994 141.79507446 C-79.6492334 141.00141479 -80.11627686 140.20775513 -80.59747314 139.39004517 C-81.00997314 138.70716431 -81.42247314 138.02428345 -81.84747314 137.32070923 C-83.20114441 133.35663804 -82.0825317 130.15278213 -80.34503174 126.46914673 C-79.81732178 125.57679321 -79.28961182 124.6844397 -78.74591064 123.76504517 C-78.14971924 122.74539673 -77.55352783 121.72574829 -76.93927002 120.67520142 C-76.29022705 119.5859436 -75.64118408 118.49668579 -74.97247314 117.37442017 C-74.29245136 116.21744665 -73.61343268 115.05988303 -72.93536377 113.90176392 C-71.5267999 111.49776868 -70.11396674 109.09636243 -68.69805908 106.69668579 C-65.45730336 101.19607137 -62.28080992 95.65838608 -59.09747314 90.12442017 C-57.84777422 87.95757983 -56.59777325 85.79091367 -55.34747314 83.62442017 C-54.72872314 82.55192017 -54.10997314 81.47942017 -53.47247314 80.37442017 C-51.59747314 77.12442017 -49.72247314 73.87442017 -47.84747314 70.62442017 C-47.22864258 69.55175903 -46.60981201 68.4790979 -45.972229 67.37393188 C-44.72311796 65.20884946 -43.47393185 63.04381034 -42.22467041 60.8788147 C-39.08545005 55.43826311 -35.94756752 49.99694801 -32.81231689 44.55410767 C-26.46927524 33.54494862 -20.11254571 22.54385391 -13.72247314 11.56192017 C-12.82033081 10.00803589 -12.82033081 10.00803589 -11.89996338 8.42276001 C-11.34896973 7.4773938 -10.79797607 6.53202759 -10.23028564 5.55801392 C-9.74447021 4.72326538 -9.25865479 3.88851685 -8.75811768 3.0284729 C-6.44644102 -0.76386329 -4.29369452 0.00686629 0 0 Z " fill="#FF6500" transform="translate(416.59747314453125,255.87557983398438)"/>
<path d="M0 0 C4.2677886 0.0858182 8.53534256 0.0700404 12.80382514 0.06777859 C19.96469356 0.0789329 27.12171231 0.1630164 34.28131843 0.29513454 C42.55124288 0.44722385 50.81717042 0.50143351 59.08840281 0.49960542 C67.91268911 0.49847606 76.7354654 0.56592349 85.55925322 0.65485191 C88.09516029 0.67596647 90.63085726 0.68459758 93.16684127 0.69055843 C97.15331959 0.70351758 101.1365852 0.76268267 105.12193465 0.85732555 C106.58180025 0.88514356 108.04204413 0.89790445 109.50217032 0.89431286 C120.52290428 0.88223864 120.52290428 0.88223864 124.16026092 4.21701622 C125.70631988 6.49952052 126.88171203 8.70196962 127.98517585 11.22286892 C128.53044929 12.13109402 129.07572272 13.03931911 129.6375196 13.97506618 C130.27367194 15.12059963 130.27367194 15.12059963 130.92267585 16.28927517 C131.41743415 17.17381374 131.91219245 18.05835232 132.42194343 18.96969509 C133.19574347 20.36345364 133.19574347 20.36345364 133.98517585 21.78536892 C138.51458653 29.87225016 143.10931774 37.91458484 147.79767585 45.91036892 C153.85511159 56.24713152 159.81582081 66.63672866 165.74420905 77.04782009 C166.38447028 78.17164089 167.02473151 79.29546169 167.6843946 80.45333767 C168.2498902 81.44744656 168.81538581 82.44155544 169.39801764 83.46578884 C170.89736153 86.07032514 172.43013145 88.65127918 173.98517585 91.22286892 C171.05085165 92.89755219 168.95757323 93.47234026 165.58864188 93.46896458 C164.70982879 93.47294667 163.83101571 93.47692877 162.92557192 93.48103154 C161.96448621 93.47520585 161.0034005 93.46938017 160.01319098 93.46337795 C158.9888852 93.4650868 157.96457941 93.46679565 156.90923405 93.46855628 C153.46670405 93.47185837 150.02436767 93.46083552 146.58185554 93.4499197 C144.11824271 93.44935574 141.65462954 93.44967184 139.19101691 93.45080471 C133.88174411 93.45126059 128.57253192 93.44557678 123.26327491 93.43432903 C115.58698362 93.41807726 107.91071611 93.41286636 100.23440948 93.41035305 C87.78022438 93.40597544 75.32606547 93.39266454 62.8718946 93.37374783 C50.77358864 93.35539074 38.6752898 93.34123339 26.57697272 93.3327322 C25.83127472 93.33220675 25.08557672 93.33168131 24.31728181 93.33113994 C20.57634658 93.32852987 16.8354113 93.32600245 13.09447598 93.32351613 C-17.94197644 93.30278157 -48.97839632 93.2674056 -80.01482415 93.22286892 C-81.10857415 91.44064236 -81.10857415 91.44064236 -82.01482415 89.22286892 C-80.81644498 86.43913397 -79.56484296 84.05462521 -78.01482415 81.47286892 C-77.56131585 80.68847439 -77.10780755 79.90407986 -76.64055657 79.09591579 C-75.11343621 76.4626498 -73.56401406 73.84320226 -72.01482415 71.22286892 C-70.92597565 69.35401373 -69.83877138 67.48419972 -68.7531054 65.61349392 C-66.42105067 61.59977572 -64.08034335 57.59128189 -61.73357415 53.58615017 C-57.32244332 46.05007892 -52.9621166 38.48495686 -48.60393548 30.91818142 C-47.45595814 28.92525769 -46.27529037 26.95080208 -45.06247735 24.99665737 C-43.4429459 22.23234936 -42.42048054 19.53676503 -41.4459765 16.48875332 C-34.35408882 -2.8361839 -17.53717375 -0.42597691 0 0 Z " fill="#FF9416" transform="translate(211.0148241519928,386.77713108062744)"/>
<path d="M0 0 C0.87435524 -0.00322445 1.74871049 -0.00644889 2.64956135 -0.00977105 C3.61083142 -0.00822245 4.57210149 -0.00667385 5.56250095 -0.00507832 C7.09344461 -0.00847665 7.09344461 -0.00847665 8.65531641 -0.01194364 C12.09155745 -0.01829786 15.52775919 -0.01745336 18.96400547 -0.01662922 C21.42098129 -0.0196198 23.87795665 -0.02302209 26.33493137 -0.02680683 C32.32566461 -0.03474026 38.31638226 -0.0378619 44.3071193 -0.03841921 C49.17543645 -0.03889408 54.04375034 -0.0409474 58.91206646 -0.04411983 C72.70846311 -0.05292756 86.50485198 -0.05753898 100.30125146 -0.05678936 C101.04525325 -0.0567494 101.78925505 -0.05670945 102.55580235 -0.05666828 C103.30071029 -0.0566274 104.04561824 -0.05658652 104.81309915 -0.0565444 C116.88969098 -0.05613781 128.96625164 -0.06571026 141.04283445 -0.07980665 C153.43692698 -0.09415976 165.83100429 -0.10107743 178.22510535 -0.10021287 C185.18591093 -0.09988055 192.14668384 -0.102643 199.10748196 -0.11339092 C205.65159647 -0.12343056 212.19565362 -0.1231715 218.73977566 -0.11587429 C221.14564712 -0.11482479 223.55152282 -0.11721286 225.95738697 -0.12323475 C229.23363698 -0.130906 232.50964515 -0.12634221 235.78588963 -0.11860371 C236.74492897 -0.12374727 237.70396832 -0.12889083 238.69206947 -0.13419026 C239.56903246 -0.12959147 240.44599545 -0.12499267 241.34953308 -0.12025452 C242.48397642 -0.12058057 242.48397642 -0.12058057 243.64133781 -0.12091321 C246.02876907 0.1632846 247.66166536 0.94437285 249.73768711 2.12863445 C249.07768711 2.45863445 248.41768711 2.78863445 247.73768711 3.12863445 C247.4940543 3.9175407 247.25042149 4.70644695 246.99940586 5.51925945 C245.18623271 10.70616964 242.35838635 15.17172477 239.55018711 19.87863445 C238.27348933 22.04230994 236.99747041 24.20638611 235.72206211 26.37082195 C235.06270664 27.48682781 234.40335117 28.60283367 233.72401524 29.75265789 C230.54843248 35.14989958 227.42408037 40.5763642 224.30018711 46.00363445 C223.37979649 47.59981609 223.37979649 47.59981609 222.44081211 49.22824383 C219.50232646 54.32467989 216.56760129 59.42325062 213.63882542 64.52527142 C212.27262197 66.90460617 210.90488455 69.28305728 209.536973 71.66141033 C208.57638846 73.33303836 207.61806533 75.00596524 206.65980625 76.67892742 C206.07320225 77.69873699 205.48659824 78.71854656 204.88221836 79.76925945 C204.11421909 81.10778973 204.11421909 81.10778973 203.33070469 82.47336102 C202.80500889 83.34960125 202.27931309 84.22584148 201.73768711 85.12863445 C201.32494038 86.15745739 200.91219364 87.18628033 200.48693943 88.24627972 C197.23490187 91.65576156 196.3787917 91.6085307 191.82783604 91.88812542 C189.26621116 91.9234372 186.71720436 91.92626481 184.15663242 91.90158367 C182.74717613 91.90975512 181.33773299 91.92055792 179.92831516 91.93379498 C176.1040216 91.96225226 172.28058833 91.95387283 168.45625114 91.93892717 C164.45896804 91.92955414 160.46189589 91.95399123 156.46467686 91.97485638 C148.89633798 92.00921789 141.32830116 92.01313096 133.75989985 92.00613129 C125.14319234 91.99964263 116.52669734 92.02705738 107.91005278 92.05733371 C90.18590287 92.11885084 72.46193433 92.1377474 54.73768711 92.12863445 C55.32204017 88.32270628 55.92192158 85.31393385 57.80018711 81.94113445 C59.28803942 79.25664648 59.73768711 78.29603003 59.73768711 75.12863445 C54.89003924 75.43161244 52.24030943 77.90855904 48.70253086 80.94894695 C46.73768711 82.12863445 46.73768711 82.12863445 44.74159336 82.0466032 C42.17911982 80.87276055 40.67670892 79.35740937 38.73768711 77.31613445 C38.07768711 76.62906414 37.41768711 75.94199383 36.73768711 75.2341032 C36.07768711 74.53929852 35.41768711 73.84449383 34.73768711 73.12863445 C33.78986362 72.24679485 33.78986362 72.24679485 32.82289219 71.34714031 C30.5168489 68.89367873 29.0221046 66.46201286 27.37440586 63.52707195 C26.74204014 62.40945477 26.10967442 61.29183758 25.4581461 60.1403532 C24.78047152 58.92812569 24.10281906 57.7158858 23.42518711 56.50363445 C22.71899762 55.25190308 22.01203638 54.00060682 21.3043375 52.7497282 C20.21056984 50.81624773 19.11728496 48.88251177 18.02636814 46.94742107 C14.2869916 40.3153876 10.48560987 33.7200805 6.67518711 27.12863445 C6.081171 26.09915691 5.48715488 25.06967937 4.87513828 24.00900555 C4.30255283 23.01723309 3.72996738 22.02546062 3.14003086 21.00363445 C2.58686192 20.04457195 2.03369297 19.08550945 1.46376133 18.09738445 C0.23667292 15.98686182 -1.00258385 13.88339359 -2.25010586 11.78488445 C-2.89222012 10.70207195 -3.53433437 9.61925945 -4.19590664 8.50363445 C-5.07653774 7.03023602 -5.07653774 7.03023602 -5.97495937 5.52707195 C-7.26231289 3.12863445 -7.26231289 3.12863445 -7.26231289 1.12863445 C-4.49240698 0.20533248 -2.85577041 0.00266048 0 0 Z " fill="#FFC13F" transform="translate(135.26231288909912,31.871365547180176)"/>
<path d="M0 0 C4.79553092 0.47439661 6.91657428 3.95184877 9.90234375 7.3828125 C11.88878153 9.26551454 11.88878153 9.26551454 14.5 8.9375 C17.95906546 7.64035045 20.26094725 5.56385919 23.03515625 3.1796875 C25 2 25 2 27.24609375 2.3203125 C27.82488281 2.54460937 28.40367187 2.76890625 29 3 C28.47675397 7.18596821 26.90941217 10.37406931 24.9375 14.03515625 C23.99448574 16.01155698 23.45673282 17.86382253 23 20 C24.0209375 20.309375 24.0209375 20.309375 25.0625 20.625 C28.97009851 22.45408866 31.83857939 25.10279034 35 28 C34.67 29.32 34.34 30.64 34 32 C28.72 31.67 23.44 31.34 18 31 C16.35 35.62 14.7 40.24 13 45 C11.68 45 10.36 45 9 45 C8.68538803 43.6254817 8.37343027 42.25035581 8.0625 40.875 C7.88847656 40.10929687 7.71445313 39.34359375 7.53515625 38.5546875 C6.94116152 35.71912141 6.47628247 32.85769484 6 30 C0.72 29.67 -4.56 29.34 -10 29 C-10.33 27.68 -10.66 26.36 -11 25 C-9.75146327 24.20602761 -8.50109957 23.41492783 -7.25 22.625 C-6.55390625 22.18414062 -5.8578125 21.74328125 -5.140625 21.2890625 C-3.13482617 20.08119094 -1.10821704 19.01612263 1 18 C0.85492922 16.66658348 0.7088897 15.33327236 0.5625 14 C0.47355469 13.1853125 0.38460937 12.370625 0.29296875 11.53125 C0.02100536 9.18148627 -0.298221 6.8426235 -0.625 4.5 C-0.74875 3.345 -0.8725 2.19 -1 1 C-0.67 0.67 -0.34 0.34 0 0 Z " fill="#FFFCF9" transform="translate(167,104)"/>
</svg>
